<svg id="svg" version="1.1" xmlns="http://www.w3.org/2000/svg" xmlns:xlink="http://www.w3.org/1999/xlink" width="400" height="400" viewBox="0, 0, 400,400"><g id="svgg"><path id="path0" d="M281.494 152.100 C 281.286 152.642,282.579 161.319,282.959 161.933 C 283.419 162.677,283.648 174.690,283.273 178.400 C 282.769 183.386,281.672 190.031,281.216 190.851 C 281.017 191.209,280.729 192.199,280.575 193.051 C 280.421 193.903,280.144 194.792,279.959 195.027 C 279.774 195.262,279.423 196.387,279.178 197.527 C 278.934 198.667,278.569 199.600,278.367 199.600 C 278.165 199.600,278.000 199.881,278.000 200.225 C 278.000 201.017,274.517 208.742,273.954 209.200 C 273.819 209.310,273.572 209.836,273.405 210.369 C 273.238 210.902,272.942 211.532,272.745 211.769 C 272.148 212.491,270.400 215.222,270.400 215.435 C 270.400 215.544,270.219 215.851,269.998 216.117 C 269.777 216.383,268.785 217.680,267.793 219.000 C 264.430 223.477,263.804 224.196,259.400 228.647 C 255.441 232.648,253.279 234.536,249.831 237.000 C 249.215 237.440,248.506 237.980,248.256 238.201 C 247.344 239.002,244.407 240.800,244.009 240.800 C 243.784 240.800,243.599 240.935,243.599 241.100 C 243.598 241.265,242.563 241.940,241.299 242.600 C 240.034 243.260,238.940 243.935,238.867 244.100 C 238.793 244.265,238.541 244.400,238.305 244.400 C 238.070 244.400,236.735 244.940,235.338 245.600 C 233.941 246.260,232.641 246.800,232.450 246.800 C 232.259 246.800,231.982 247.565,231.834 248.500 C 231.446 250.959,229.577 258.483,229.158 259.272 C 228.713 260.111,230.006 260.395,231.800 259.853 C 233.761 259.260,238.184 257.470,238.400 257.183 C 238.510 257.036,239.230 256.696,240.000 256.428 C 240.770 256.160,241.884 255.639,242.475 255.270 C 243.066 254.902,245.226 253.622,247.275 252.427 C 249.324 251.232,251.090 250.131,251.200 249.981 C 251.310 249.831,251.764 249.594,252.209 249.456 C 252.653 249.317,253.595 248.676,254.301 248.031 C 255.007 247.386,255.904 246.754,256.293 246.627 C 256.682 246.500,257.743 245.721,258.651 244.898 C 259.560 244.074,261.360 242.511,262.651 241.424 C 265.488 239.039,271.667 232.818,273.600 230.403 C 274.370 229.440,275.315 228.376,275.700 228.038 C 276.085 227.699,276.400 227.277,276.400 227.099 C 276.400 226.832,278.390 224.081,280.005 222.115 C 280.224 221.848,280.624 221.128,280.894 220.515 C 281.163 219.902,281.493 219.310,281.626 219.200 C 282.016 218.879,284.999 213.564,285.892 211.600 C 286.342 210.610,287.247 208.630,287.902 207.200 C 288.557 205.770,289.221 204.150,289.378 203.600 C 289.535 203.050,289.912 202.049,290.215 201.375 C 290.518 200.701,290.888 199.392,291.036 198.466 C 291.184 197.540,291.451 196.692,291.629 196.582 C 291.808 196.472,292.077 195.531,292.227 194.491 C 292.378 193.451,292.639 192.420,292.807 192.200 C 292.976 191.980,293.328 190.090,293.590 188.000 C 293.852 185.910,294.276 183.768,294.533 183.239 C 295.166 181.936,295.178 162.346,294.546 161.555 C 294.302 161.250,293.974 159.652,293.818 158.004 C 293.661 156.356,293.183 154.241,292.756 153.304 L 291.980 151.600 286.833 151.600 C 283.084 151.600,281.634 151.736,281.494 152.100 " stroke="none" fill="#047ca4" fill-rule="evenodd"></path><path id="path1" d="M195.957 76.973 C 195.830 77.097,191.936 77.594,187.000 78.115 C 186.560 78.162,186.110 78.297,186.000 78.415 C 185.890 78.533,184.450 78.863,182.800 79.148 C 178.860 79.828,179.063 79.783,178.572 80.090 C 178.144 80.358,176.242 80.827,175.300 80.896 C 175.025 80.917,174.800 81.063,174.800 81.222 C 174.800 81.381,174.215 81.622,173.500 81.758 C 172.785 81.893,171.697 82.267,171.083 82.587 C 170.469 82.908,169.344 83.287,168.583 83.430 C 167.822 83.572,167.200 83.829,167.200 84.001 C 167.200 84.173,166.705 84.434,166.100 84.581 C 164.996 84.851,158.375 87.998,158.000 88.431 C 157.890 88.559,156.810 89.189,155.600 89.831 C 154.390 90.474,153.162 91.225,152.871 91.500 C 152.581 91.775,152.203 92.000,152.033 92.000 C 151.760 92.000,151.142 92.454,149.317 93.993 C 149.051 94.217,148.728 94.400,148.600 94.400 C 148.305 94.400,143.939 97.552,143.400 98.154 C 143.180 98.399,141.926 99.500,140.614 100.600 C 138.082 102.722,131.208 109.490,130.325 110.730 C 130.036 111.136,129.037 112.353,128.104 113.434 C 125.126 116.885,124.401 117.793,124.400 118.075 C 124.400 118.227,123.860 118.942,123.200 119.664 C 122.540 120.387,122.000 121.186,122.000 121.440 C 122.000 121.694,121.742 122.116,121.426 122.378 C 120.337 123.282,119.223 125.863,119.712 126.352 C 121.693 128.333,134.000 126.433,134.000 124.145 C 134.000 123.845,134.139 123.600,134.310 123.600 C 134.480 123.600,135.403 122.524,136.361 121.209 C 137.318 119.894,138.709 118.193,139.451 117.429 C 140.193 116.665,140.800 115.963,140.800 115.870 C 140.800 115.725,143.665 112.894,146.537 110.200 C 148.332 108.518,153.791 104.322,154.968 103.721 C 155.646 103.375,156.344 102.846,156.520 102.546 C 156.696 102.246,157.101 102.000,157.420 102.000 C 157.739 102.000,158.000 101.832,158.000 101.627 C 158.000 101.422,158.405 101.129,158.900 100.977 C 159.395 100.825,160.790 100.126,162.000 99.425 C 163.210 98.724,165.910 97.464,168.000 96.625 C 170.090 95.786,172.340 94.843,172.999 94.531 C 174.279 93.924,181.446 91.992,182.793 91.891 C 183.237 91.857,183.600 91.713,183.600 91.570 C 183.600 91.246,190.020 90.483,194.600 90.262 C 195.480 90.220,196.381 90.070,196.603 89.929 C 197.154 89.579,202.903 89.616,203.400 89.973 C 203.620 90.131,204.790 90.286,206.000 90.318 C 209.234 90.403,215.677 91.176,216.600 91.590 C 217.040 91.788,218.390 92.131,219.600 92.353 C 222.250 92.839,226.297 93.902,227.400 94.402 C 227.840 94.601,229.370 95.238,230.800 95.816 C 234.087 97.146,239.337 99.630,239.600 99.980 C 239.710 100.126,240.430 100.495,241.200 100.800 C 241.970 101.105,242.690 101.459,242.800 101.586 C 242.910 101.713,244.260 102.622,245.800 103.606 C 248.939 105.611,248.798 105.512,251.024 107.297 C 251.917 108.014,253.338 109.140,254.182 109.800 C 257.239 112.191,265.805 121.155,266.188 122.364 C 266.303 122.723,266.937 123.609,267.598 124.333 C 268.259 125.057,268.800 125.818,268.800 126.025 C 268.800 126.231,268.980 126.400,269.200 126.400 C 269.420 126.400,269.600 126.627,269.600 126.904 C 269.600 127.181,270.012 127.856,270.515 128.404 C 271.019 128.952,271.670 129.985,271.964 130.700 C 272.257 131.415,272.655 132.000,272.849 132.000 C 273.042 132.000,273.200 132.257,273.200 132.571 C 273.200 132.886,273.483 133.426,273.829 133.771 C 274.400 134.343,270.948 134.400,235.861 134.400 C 214.634 134.400,196.981 134.509,196.633 134.643 C 195.716 134.994,195.692 144.847,196.606 145.605 C 197.081 145.999,201.498 146.068,217.106 145.924 L 237.000 145.740 237.000 185.570 C 237.000 207.476,237.133 225.873,237.295 226.451 L 237.591 227.502 242.895 227.477 C 246.748 227.459,248.346 227.306,248.735 226.919 C 249.177 226.480,249.247 219.343,249.135 186.093 L 249.000 145.800 269.000 145.800 C 280.000 145.800,289.360 145.689,289.800 145.553 C 290.672 145.283,290.816 142.656,290.003 141.843 C 289.781 141.621,289.600 141.163,289.600 140.824 C 289.600 140.484,288.957 138.855,288.171 137.204 C 284.561 129.620,283.050 126.585,282.789 126.400 C 282.635 126.290,282.381 125.795,282.227 125.300 C 282.072 124.805,281.778 124.400,281.573 124.400 C 281.368 124.400,281.197 124.175,281.193 123.900 C 281.186 123.442,279.380 120.470,278.407 119.317 C 278.183 119.051,278.000 118.706,278.000 118.550 C 278.000 118.395,277.731 117.982,277.402 117.634 C 276.366 116.536,274.800 114.495,274.800 114.242 C 274.800 114.109,274.485 113.672,274.100 113.271 C 272.922 112.044,271.415 110.251,270.701 109.227 C 269.236 107.127,263.010 101.045,259.208 98.000 C 258.246 97.230,257.145 96.299,256.760 95.930 C 256.375 95.562,255.653 95.043,255.155 94.776 C 254.658 94.510,254.059 94.137,253.825 93.947 C 251.945 92.422,248.934 90.400,248.544 90.400 C 248.282 90.400,248.007 90.251,247.933 90.068 C 247.671 89.414,238.043 84.400,237.051 84.400 C 236.693 84.400,236.400 84.220,236.400 84.000 C 236.400 83.780,236.175 83.599,235.900 83.598 C 235.625 83.596,234.871 83.319,234.225 82.982 C 233.579 82.646,232.229 82.194,231.225 81.978 C 230.221 81.762,229.040 81.422,228.600 81.222 C 226.975 80.482,222.540 79.234,220.600 78.970 C 219.500 78.820,218.420 78.591,218.200 78.461 C 217.743 78.189,217.867 78.210,212.800 77.575 C 209.143 77.118,196.280 76.657,195.957 76.973 " stroke="none" fill="#cc0c04" fill-rule="evenodd"></path><path id="path2" d="M116.727 134.690 C 115.303 134.840,115.193 134.971,113.474 138.523 C 110.961 143.717,110.400 145.035,110.400 145.737 C 110.400 146.076,110.246 146.448,110.057 146.565 C 109.869 146.681,109.482 147.907,109.197 149.288 C 108.913 150.670,108.545 151.980,108.380 152.200 C 108.214 152.420,107.889 153.680,107.657 155.000 C 107.425 156.320,107.016 158.480,106.749 159.800 C 106.108 162.962,106.096 180.552,106.733 183.800 C 106.991 185.120,107.408 187.460,107.659 189.000 C 107.910 190.540,108.240 191.890,108.393 192.000 C 108.546 192.110,108.897 193.370,109.173 194.800 C 109.449 196.230,109.817 197.580,109.991 197.800 C 110.165 198.020,110.435 198.797,110.592 199.527 C 110.748 200.257,111.127 201.337,111.436 201.927 C 111.744 202.517,112.107 203.585,112.242 204.300 C 112.378 205.015,112.649 205.600,112.845 205.600 C 113.040 205.600,113.200 205.798,113.200 206.040 C 113.200 206.914,117.960 216.800,118.380 216.800 C 118.523 216.800,118.867 217.430,119.146 218.200 C 119.424 218.970,119.820 219.600,120.026 219.600 C 120.232 219.600,120.400 219.876,120.400 220.213 C 120.400 220.549,120.654 220.922,120.964 221.041 C 121.274 221.161,121.629 221.662,121.753 222.155 C 121.877 222.649,122.340 223.491,122.782 224.026 C 123.224 224.562,123.744 225.191,123.938 225.425 C 124.133 225.659,124.525 226.285,124.809 226.817 C 125.094 227.349,125.523 227.993,125.763 228.250 C 126.003 228.506,126.920 229.580,127.800 230.635 C 131.757 235.378,136.345 240.113,139.317 242.517 C 140.189 243.223,141.195 244.092,141.551 244.448 C 142.796 245.691,150.528 251.200,151.029 251.200 C 151.306 251.200,151.593 251.335,151.667 251.500 C 151.807 251.816,155.046 254.000,155.374 254.000 C 155.479 254.000,156.445 254.519,157.522 255.154 C 158.598 255.788,159.911 256.443,160.439 256.608 C 160.968 256.773,161.490 257.026,161.600 257.170 C 161.710 257.314,162.970 257.935,164.400 258.551 C 165.830 259.166,167.540 259.909,168.200 260.202 C 168.860 260.494,170.075 260.859,170.900 261.011 C 171.725 261.164,172.400 261.433,172.400 261.609 C 172.400 261.786,173.165 262.056,174.100 262.210 C 175.035 262.364,175.992 262.645,176.228 262.834 C 176.463 263.023,177.993 263.401,179.628 263.674 C 181.262 263.947,182.690 264.289,182.800 264.434 C 183.041 264.752,188.492 265.488,194.861 266.061 C 200.463 266.566,216.400 265.339,216.400 264.403 C 216.400 264.238,217.293 263.985,218.384 263.840 C 221.549 263.420,221.581 262.206,218.514 258.922 C 217.461 257.795,215.722 255.866,214.649 254.636 C 212.740 252.447,211.782 251.978,210.941 252.819 C 210.347 253.413,190.314 253.548,189.562 252.962 C 189.253 252.721,187.425 252.298,185.500 252.021 C 183.575 251.744,182.000 251.379,182.000 251.210 C 182.000 251.041,181.244 250.781,180.320 250.634 C 179.396 250.486,178.451 250.224,178.220 250.052 C 177.635 249.617,174.677 248.800,173.687 248.800 C 173.236 248.800,172.807 248.665,172.733 248.500 C 172.660 248.335,171.340 247.764,169.800 247.232 C 168.260 246.699,166.208 245.844,165.240 245.332 C 164.273 244.819,163.253 244.400,162.974 244.400 C 162.695 244.400,162.407 244.265,162.333 244.100 C 162.260 243.935,161.166 243.260,159.901 242.600 C 158.637 241.940,157.602 241.285,157.601 241.143 C 157.601 241.002,157.145 240.773,156.590 240.633 C 156.034 240.494,155.254 240.069,154.856 239.690 C 154.458 239.310,153.717 238.730,153.210 238.400 C 152.703 238.070,151.729 237.350,151.044 236.800 C 150.360 236.251,149.553 235.621,149.252 235.400 C 148.157 234.602,138.969 225.322,137.800 223.835 C 137.140 222.996,136.195 221.808,135.700 221.197 C 135.205 220.585,134.800 219.905,134.800 219.685 C 134.800 219.465,134.530 219.182,134.200 219.055 C 133.870 218.929,133.600 218.632,133.600 218.396 C 133.600 217.995,132.096 215.643,131.556 215.200 C 131.347 215.028,130.579 213.635,127.368 207.600 C 127.075 207.050,126.360 205.520,125.779 204.200 C 125.197 202.880,124.469 201.233,124.161 200.540 C 123.852 199.846,123.599 199.036,123.598 198.740 C 123.596 198.443,123.343 197.717,123.035 197.127 C 122.727 196.537,122.348 195.457,122.192 194.727 C 122.035 193.997,121.766 193.220,121.593 193.000 C 121.420 192.780,121.044 191.160,120.757 189.400 C 120.470 187.640,120.118 186.110,119.974 186.000 C 118.556 184.914,118.563 159.841,119.983 156.600 C 120.175 156.160,120.545 154.630,120.804 153.200 C 121.063 151.770,121.413 150.420,121.582 150.200 C 121.751 149.980,122.015 149.260,122.167 148.600 C 122.813 145.807,123.315 145.140,124.600 145.364 C 125.260 145.479,137.500 145.601,151.800 145.635 C 173.113 145.685,178.048 145.798,179.174 146.259 C 180.963 146.991,183.135 149.453,183.445 151.100 C 183.579 151.815,183.849 152.400,184.045 152.400 C 184.240 152.400,184.400 153.480,184.400 154.800 C 184.400 156.133,184.222 157.200,184.000 157.200 C 183.780 157.200,183.600 157.494,183.600 157.853 C 183.600 159.496,180.693 163.011,178.979 163.441 C 178.436 163.577,177.894 163.849,177.773 164.044 C 177.649 164.245,168.480 164.400,156.800 164.400 C 132.748 164.400,133.855 164.141,138.476 168.691 C 139.644 169.841,142.580 172.791,145.000 175.247 C 147.420 177.703,149.741 180.002,150.157 180.356 C 150.574 180.710,151.204 181.341,151.557 181.757 C 151.911 182.174,152.537 182.804,152.949 183.157 C 153.360 183.511,154.350 184.502,155.149 185.359 C 155.947 186.217,157.561 187.837,158.735 188.959 C 159.910 190.082,161.170 191.341,161.535 191.757 C 161.901 192.174,162.541 192.804,162.957 193.157 C 163.374 193.511,164.004 194.133,164.357 194.541 C 164.711 194.948,166.350 196.610,168.000 198.233 C 169.650 199.857,171.180 201.368,171.400 201.591 C 171.620 201.814,172.223 202.402,172.739 202.898 C 173.256 203.394,173.976 204.143,174.339 204.561 C 175.220 205.576,205.087 235.789,218.362 249.094 C 225.788 256.537,229.012 259.519,229.221 259.140 C 229.587 258.475,231.468 250.820,231.831 248.520 C 231.998 247.463,232.338 246.776,232.748 246.667 C 233.219 246.541,233.169 246.480,232.567 246.446 C 232.043 246.417,227.941 242.579,221.509 236.100 C 215.885 230.435,200.189 214.640,186.629 201.000 L 161.975 176.200 170.287 175.999 C 175.813 175.866,179.002 175.624,179.800 175.279 C 182.197 174.240,184.605 173.050,184.800 172.806 C 184.910 172.670,185.630 172.172,186.400 171.700 C 187.170 171.229,188.520 170.100,189.400 169.192 C 190.280 168.284,191.315 167.245,191.700 166.882 C 192.085 166.519,192.400 165.992,192.400 165.711 C 192.400 165.430,192.548 165.200,192.729 165.200 C 193.655 165.200,195.524 159.518,195.883 155.610 C 196.177 152.416,193.924 144.400,192.732 144.400 C 192.550 144.400,192.395 144.175,192.389 143.900 C 192.360 142.531,186.870 137.685,183.044 135.652 L 180.687 134.400 149.444 134.467 C 132.260 134.504,117.537 134.604,116.727 134.690 M233.275 145.892 C 236.701 146.027,236.752 146.045,236.933 147.115 C 237.102 148.119,237.111 148.111,237.058 147.000 L 237.000 145.800 233.400 145.778 L 229.800 145.755 233.275 145.892 M262.917 145.897 C 264.411 145.974,266.751 145.974,268.117 145.896 C 269.482 145.818,268.260 145.755,265.400 145.755 C 262.540 145.756,261.422 145.820,262.917 145.897 M88.788 284.769 C 87.073 285.105,84.902 286.644,84.550 287.772 C 84.408 288.228,84.100 288.723,83.866 288.873 C 81.944 290.105,84.774 298.000,87.138 298.000 C 87.392 298.000,87.600 298.162,87.600 298.360 C 87.600 298.558,88.545 298.944,89.700 299.218 C 90.855 299.492,91.890 299.843,92.000 299.998 C 92.110 300.153,92.740 300.457,93.400 300.673 C 95.649 301.409,95.852 305.613,93.678 306.453 C 91.799 307.180,88.533 306.677,87.269 305.466 C 86.657 304.880,85.891 304.400,85.567 304.400 C 84.893 304.400,82.400 306.559,82.400 307.142 C 82.400 307.679,84.743 309.600,85.397 309.600 C 85.692 309.600,85.996 309.788,86.072 310.017 C 86.491 311.273,95.058 311.196,96.631 309.922 C 98.487 308.420,99.190 307.562,99.408 306.534 C 99.540 305.911,99.817 305.087,100.024 304.705 C 100.523 303.784,100.506 301.600,100.000 301.600 C 99.780 301.600,99.600 301.233,99.600 300.784 C 99.600 299.780,98.042 297.600,97.325 297.600 C 97.036 297.600,96.800 297.427,96.800 297.216 C 96.800 297.005,96.035 296.609,95.100 296.336 C 94.165 296.062,93.310 295.731,93.200 295.600 C 93.090 295.469,92.225 295.134,91.277 294.858 C 87.114 293.641,86.840 290.654,90.695 288.500 C 92.051 287.742,96.000 288.914,96.000 290.074 C 96.000 290.806,97.704 290.329,98.619 289.342 C 101.610 286.114,95.774 283.400,88.788 284.769 M116.947 284.835 C 114.927 285.421,111.600 287.469,111.600 288.127 C 111.600 288.243,111.073 288.865,110.429 289.509 C 109.785 290.154,109.136 291.336,108.985 292.140 C 108.834 292.943,108.551 293.600,108.355 293.600 C 108.160 293.600,108.000 295.310,108.000 297.400 C 108.000 299.667,108.161 301.200,108.400 301.200 C 108.620 301.200,108.801 301.695,108.801 302.300 C 108.806 305.844,113.786 310.090,118.765 310.795 C 121.544 311.188,127.287 310.647,127.533 309.968 C 127.607 309.766,127.949 309.600,128.294 309.600 C 129.337 309.600,133.482 305.048,133.809 303.545 C 133.969 302.805,134.275 302.089,134.489 301.952 C 134.985 301.636,135.026 294.174,134.535 293.503 C 134.333 293.227,133.921 292.280,133.622 291.400 C 133.040 289.693,129.604 286.000,128.598 286.000 C 128.269 286.000,128.000 285.851,128.000 285.669 C 128.000 284.651,119.733 284.028,116.947 284.835 M243.152 284.823 C 241.484 285.218,238.800 286.708,238.800 287.240 C 238.800 287.438,238.530 287.600,238.200 287.600 C 237.870 287.600,237.600 287.827,237.600 288.104 C 237.600 288.381,237.240 288.832,236.800 289.107 C 236.360 289.382,236.000 289.875,236.000 290.203 C 236.000 290.532,235.838 290.800,235.640 290.800 C 234.066 290.800,234.049 302.054,235.619 304.682 C 236.668 306.438,239.434 309.090,240.600 309.456 C 241.040 309.595,241.498 309.859,241.617 310.044 C 242.330 311.146,252.865 311.155,253.576 310.054 C 253.699 309.864,254.161 309.595,254.603 309.458 C 255.735 309.105,259.079 305.816,259.422 304.717 C 259.579 304.213,259.864 303.699,260.055 303.575 C 261.962 302.344,260.410 289.200,258.358 289.200 C 258.161 289.200,258.000 288.954,258.000 288.654 C 258.000 288.064,255.262 286.000,254.478 286.000 C 254.215 286.000,254.000 285.851,254.000 285.669 C 254.000 284.660,246.356 284.065,243.152 284.823 M306.295 284.835 C 304.350 285.293,302.113 287.338,301.799 288.944 C 301.664 289.635,301.352 290.609,301.105 291.108 C 300.769 291.788,300.775 292.135,301.128 292.488 C 301.388 292.748,301.600 293.458,301.600 294.066 C 301.600 295.847,304.293 298.216,307.400 299.170 C 311.364 300.386,313.205 301.757,313.191 303.483 C 313.164 306.858,307.944 308.093,305.048 305.410 C 303.439 303.918,300.400 305.123,300.400 307.251 C 300.400 307.883,302.322 309.600,303.029 309.600 C 303.306 309.600,303.596 309.788,303.672 310.017 C 304.068 311.205,313.535 311.194,313.932 310.005 C 314.006 309.782,314.309 309.600,314.604 309.600 C 314.900 309.600,315.513 309.105,315.967 308.500 C 316.420 307.895,317.016 307.137,317.290 306.815 C 317.595 306.459,317.789 305.038,317.789 303.175 L 317.789 300.119 316.072 298.469 C 315.097 297.533,313.628 296.606,312.677 296.329 C 311.755 296.059,310.910 295.731,310.800 295.600 C 310.690 295.469,309.796 295.126,308.813 294.839 C 305.098 293.752,304.838 290.206,308.358 288.619 C 310.012 287.873,313.600 288.819,313.600 290.002 C 313.600 290.774,315.221 290.387,316.403 289.334 C 317.505 288.352,318.039 286.800,317.275 286.800 C 317.097 286.800,316.540 286.417,316.038 285.949 C 314.479 284.497,309.935 283.977,306.295 284.835 M143.600 297.600 L 143.600 310.400 151.400 310.400 L 159.200 310.400 159.200 308.400 L 159.200 306.400 153.600 306.400 L 148.000 306.400 148.000 295.600 L 148.000 284.800 145.800 284.800 L 143.600 284.800 143.600 297.600 M166.000 294.540 C 166.000 303.828,166.300 306.800,167.239 306.800 C 167.438 306.800,167.600 307.057,167.600 307.371 C 167.600 307.685,168.095 308.313,168.700 308.767 C 169.305 309.220,170.011 309.768,170.270 309.983 C 171.723 311.195,180.329 311.213,180.732 310.005 C 180.806 309.782,181.093 309.600,181.369 309.600 C 182.297 309.600,184.846 306.427,185.081 304.978 C 185.206 304.210,185.464 303.484,185.654 303.367 C 185.844 303.249,186.000 299.023,186.000 293.976 L 186.000 284.800 183.800 284.800 L 181.600 284.800 181.600 293.400 C 181.600 298.130,181.442 302.000,181.250 302.000 C 181.058 302.000,180.796 302.522,180.668 303.160 C 179.774 307.629,172.448 308.135,170.815 303.840 C 170.573 303.203,170.400 299.009,170.400 293.774 L 170.400 284.800 168.200 284.800 L 166.000 284.800 166.000 294.540 M193.200 287.000 L 193.200 289.200 197.000 289.200 L 200.800 289.200 200.800 299.800 L 200.800 310.400 203.000 310.400 L 205.200 310.400 205.200 299.814 L 205.200 289.228 209.300 289.114 L 213.400 289.000 213.521 286.900 L 213.642 284.800 203.421 284.800 L 193.200 284.800 193.200 287.000 M220.800 297.600 L 220.800 310.400 223.000 310.400 L 225.200 310.400 225.200 297.600 L 225.200 284.800 223.000 284.800 L 220.800 284.800 220.800 297.600 M269.600 297.600 L 269.600 310.400 271.800 310.400 L 274.000 310.400 274.021 300.700 C 274.040 291.537,274.076 291.083,274.663 292.500 C 275.006 293.325,275.424 294.000,275.594 294.000 C 275.764 294.000,276.127 294.540,276.400 295.200 C 276.673 295.860,277.055 296.400,277.249 296.400 C 277.442 296.400,277.600 296.572,277.600 296.782 C 277.600 297.150,279.155 299.684,279.994 300.683 C 280.217 300.949,280.400 301.345,280.400 301.563 C 280.400 301.782,280.625 302.104,280.901 302.280 C 281.176 302.456,281.671 303.140,282.001 303.800 C 282.632 305.064,282.743 305.227,284.007 306.761 C 284.443 307.290,284.806 307.920,284.813 308.161 C 284.856 309.560,286.338 310.400,288.764 310.400 L 291.200 310.400 291.200 297.579 L 291.200 284.758 289.100 284.879 L 287.000 285.000 286.800 293.800 C 286.680 299.065,286.469 302.238,286.273 301.700 C 286.093 301.205,285.778 300.800,285.573 300.800 C 285.368 300.800,285.200 300.539,285.200 300.220 C 285.200 299.901,284.975 299.496,284.699 299.320 C 284.424 299.144,283.929 298.460,283.599 297.800 C 283.270 297.140,282.820 296.397,282.600 296.149 C 282.380 295.901,281.978 295.361,281.707 294.949 C 281.436 294.537,280.761 293.517,280.207 292.682 C 279.653 291.847,279.200 291.066,279.200 290.945 C 279.200 290.825,278.885 290.314,278.500 289.809 C 277.551 288.566,276.926 287.641,275.996 286.100 C 275.231 284.831,275.144 284.800,272.406 284.800 L 269.600 284.800 269.600 297.600 M125.000 289.302 C 126.766 289.953,129.118 292.556,129.427 294.202 C 129.572 294.976,129.850 295.707,130.045 295.828 C 130.536 296.131,130.494 299.600,130.000 299.600 C 129.780 299.600,129.600 299.989,129.600 300.465 C 129.600 301.697,127.745 304.700,126.799 305.000 C 126.359 305.140,126.000 305.413,126.000 305.608 C 126.000 307.185,118.349 307.039,116.514 305.427 C 114.074 303.284,113.200 301.793,113.200 299.774 C 113.200 299.238,113.020 298.800,112.800 298.800 C 112.580 298.800,112.400 298.361,112.400 297.824 C 112.400 297.287,112.580 296.736,112.800 296.600 C 113.020 296.464,113.200 295.922,113.200 295.395 C 113.200 290.533,119.503 287.278,125.000 289.302 M251.100 289.268 C 251.815 289.485,252.400 289.798,252.400 289.963 C 252.400 290.129,252.838 290.499,253.374 290.786 C 253.909 291.072,254.574 291.868,254.851 292.553 C 255.128 293.239,255.545 293.929,255.777 294.086 C 256.532 294.596,256.299 300.959,255.495 301.762 C 255.114 302.144,254.701 302.853,254.579 303.339 C 253.951 305.844,247.454 307.685,244.399 306.225 C 241.654 304.912,241.190 304.598,240.970 303.906 C 240.848 303.520,240.487 302.944,240.168 302.625 C 239.358 301.815,238.771 298.349,239.060 296.092 C 239.813 290.225,244.846 287.373,251.100 289.268 " stroke="none" fill="#040404" fill-rule="evenodd"></path><path id="path3" d="M248.961 155.200 C 248.961 158.610,249.022 160.005,249.097 158.300 C 249.172 156.595,249.172 153.805,249.097 152.100 C 249.022 150.395,248.961 151.790,248.961 155.200 " stroke="none" fill="#9c4058" fill-rule="evenodd"></path><path id="path4" d="M236.942 223.000 C 236.941 224.980,237.008 225.840,237.092 224.912 C 237.176 223.984,237.177 222.364,237.095 221.312 C 237.012 220.260,236.943 221.020,236.942 223.000 M242.300 227.482 C 242.795 227.578,243.605 227.578,244.100 227.482 C 244.595 227.387,244.190 227.309,243.200 227.309 C 242.210 227.309,241.805 227.387,242.300 227.482 " stroke="none" fill="#34442c" fill-rule="evenodd"></path></g></svg>